<svg width="63" height="67" viewBox="0 0 63 67" fill="none" xmlns="http://www.w3.org/2000/svg">
<path d="M52.5225 15.889L48.0267 14.7773V16.9983L52.5225 15.889Z" fill="#FFC547"/>
<path d="M31.5723 30.0128H14.9733V8.26554C14.9733 3.70085 18.6893 0 23.2728 0C27.8562 0 31.5723 3.70085 31.5723 8.26554V30.0128Z" fill="#FFC547"/>
<path d="M20.2369 39.3167H3.77765V25.0184C3.77765 20.4915 7.4629 16.8213 12.0084 16.8213C16.554 16.8213 20.2392 20.4915 20.2392 25.0184V39.3167H20.2369Z" fill="#FFA95C"/>
<path d="M59.2223 39.3167H48.6832V22.0681C48.6832 19.1697 51.0413 16.8213 53.9516 16.8213C56.8619 16.8213 59.22 19.1697 59.22 22.0681V39.3167H59.2223Z" fill="#FF9B36"/>
<path d="M48.6832 39.3167H20.2369V19.0659C20.2369 11.2441 26.6049 4.9021 34.4589 4.9021C42.3128 4.9021 48.6808 11.2441 48.6808 19.0659V39.3167H48.6832Z" fill="#EA8416"/>
<path d="M0 26.378L3.77768 27.3103V25.4434L0 26.378Z" fill="#FFC547"/>
<path d="M11.1956 8.11686L14.9732 9.05151V7.18457L11.1956 8.11686Z" fill="#FFC547"/>
<path d="M63 23.4821L59.2223 22.5498V24.4167L63 23.4821Z" fill="#FFC547"/>
<path d="M9.18111 27.3812C9.73739 27.3812 10.1883 26.9321 10.1883 26.3781C10.1883 25.8241 9.73739 25.375 9.18111 25.375C8.62484 25.375 8.17389 25.8241 8.17389 26.3781C8.17389 26.9321 8.62484 27.3812 9.18111 27.3812Z" fill="white"/>
<path d="M20.3791 9.11997C20.9354 9.11997 21.3863 8.67087 21.3863 8.11687C21.3863 7.56287 20.9354 7.11377 20.3791 7.11377C19.8228 7.11377 19.3719 7.56287 19.3719 8.11687C19.3719 8.67087 19.8228 9.11997 20.3791 9.11997Z" fill="white"/>
<path d="M56.8477 24.4852C57.4039 24.4852 57.8549 24.0361 57.8549 23.4821C57.8549 22.9281 57.4039 22.479 56.8477 22.479C56.2914 22.479 55.8405 22.9281 55.8405 23.4821C55.8405 24.0361 56.2914 24.4852 56.8477 24.4852Z" fill="white"/>
<path d="M42.7678 16.8922C43.3241 16.8922 43.7751 16.4431 43.7751 15.8891C43.7751 15.3351 43.3241 14.886 42.7678 14.886C42.2116 14.886 41.7606 15.3351 41.7606 15.8891C41.7606 16.4431 42.2116 16.8922 42.7678 16.8922Z" fill="white"/>
<path d="M20.1231 51.1063C23.7515 49.9427 27.4225 48.9113 31.1172 48.0239C29.136 47.4881 27.1381 46.9901 25.1521 46.5393C18.2485 44.9721 11.1742 43.8864 4.06439 43.2939C4.34167 45.2128 4.81329 47.0703 5.46502 48.8405C7.74964 49.0812 10.0295 49.3716 12.2857 49.7114C14.8997 50.1056 17.5351 50.5753 20.1231 51.1063Z" fill="#FFC547"/>
<path d="M34.0085 47.3582C37.5232 46.5841 41.0733 45.935 44.6448 45.4087C38.8148 43.3081 32.8212 41.5544 26.7921 40.1855C25.4341 39.8763 24.069 39.5883 22.6992 39.3169H3.77765C3.77765 40.1737 3.81794 41.021 3.89615 41.8565C11.1695 42.4489 18.4073 43.5535 25.4697 45.1561C28.3183 45.8028 31.1907 46.5439 34.0085 47.3582Z" fill="#FFC547"/>
<path d="M58.7958 43.9902L58.836 44.7289C58.9972 43.9217 59.1228 43.1004 59.2105 42.2696C56.4827 41.2287 53.7241 40.2468 50.9442 39.3169H29.2782C35.4922 40.8227 41.6516 42.7298 47.6215 45.0004C51.3376 44.5283 55.0678 44.1884 58.7958 43.9902Z" fill="#FFC547"/>
<path d="M59.3692 39.3169H55.2906C56.6438 39.7984 57.9899 40.2917 59.329 40.7991C59.355 40.3082 59.3692 39.8149 59.3692 39.3169Z" fill="#FFC547"/>
<path d="M17.3834 52.0125C15.6178 51.6797 13.8404 51.3753 12.0724 51.1085C10.084 50.8088 8.07671 50.5492 6.06464 50.325C6.87041 52.173 7.8729 53.9172 9.04601 55.5316L8.90619 55.1918C11.6932 54.0494 14.5229 52.9897 17.3834 52.0125Z" fill="#FFC547"/>
<path d="M52.1812 57.892C53.7809 56.1336 55.1555 54.1699 56.2622 52.0457C49.105 52.6286 41.9644 53.7238 34.9778 55.3099C28.1405 56.8629 21.372 58.9045 14.8026 61.3922C16.7435 62.8579 18.886 64.0758 21.1777 64.9963C26.3039 63.245 31.5296 61.7627 36.7932 60.5661C41.8601 59.4167 47.0052 58.5245 52.1812 57.892Z" fill="#FFC547"/>
<path d="M56.9756 50.5682C57.7079 48.9278 58.2862 47.2048 58.6914 45.4158C50.1763 45.8784 41.6469 47.0703 33.3355 48.9561C25.2896 50.7829 17.3384 53.2871 9.69775 56.3979C10.8353 57.8424 12.1175 59.1689 13.5181 60.3631C20.3909 57.7173 27.4889 55.5553 34.6603 53.9291C41.9834 52.2652 49.4748 51.1393 56.9756 50.5682Z" fill="#FFC547"/>
<path d="M50.5649 59.5276C46.0407 60.1342 41.5426 60.9414 37.1084 61.9468C32.4728 62.9995 27.8704 64.2764 23.3391 65.7657C25.9413 66.5682 28.7046 67.0001 31.5723 67.0001C38.9167 67.0001 45.5952 64.1607 50.5649 59.5276Z" fill="#FFC547"/>
<path d="M58.6915 45.4158C58.7436 45.1869 58.791 44.9579 58.836 44.729L58.7957 43.9902C55.0678 44.1885 51.3352 44.526 47.6191 44.9981C47.6736 45.0193 47.7305 45.0382 47.785 45.0594L47.2755 46.3812C46.401 46.0484 45.5241 45.7226 44.6425 45.4064C41.071 45.9303 37.5208 46.5818 34.0062 47.3559C34.0631 47.3725 34.1223 47.389 34.1792 47.4055L33.7811 48.765C32.8971 48.5077 32.006 48.2623 31.1125 48.0215C27.4178 48.9113 23.7468 49.9404 20.1184 51.104C20.1776 51.1158 20.2393 51.1276 20.2985 51.1394L20.0094 52.5272C19.1372 52.3478 18.258 52.1779 17.3787 52.0127C14.5182 52.9898 11.6862 54.0496 8.89911 55.1919L9.03894 55.5318C9.25223 55.8245 9.46789 56.1148 9.69304 56.398C17.3337 53.2872 25.2825 50.783 33.3308 48.9562C41.6469 47.0703 50.1763 45.8808 58.6915 45.4158Z" fill="white"/>
<path d="M56.2623 52.0456C56.5135 51.5618 56.7529 51.0685 56.9756 50.5681C49.4748 51.1393 41.9834 52.2651 34.6603 53.9291C27.4889 55.5577 20.3909 57.7173 13.5181 60.3631C13.9352 60.7171 14.3618 61.0617 14.8003 61.3922C21.3697 58.9045 28.1383 56.8605 34.9755 55.3098C41.9621 53.7237 49.1051 52.631 56.2623 52.0456Z" fill="white"/>
<path d="M50.5649 59.5275C51.1266 59.0035 51.6646 58.4607 52.1812 57.8918C47.0053 58.522 41.8602 59.4142 36.7932 60.566C31.5272 61.7603 26.3015 63.2449 21.1777 64.9962C21.884 65.2794 22.6068 65.539 23.3415 65.7656C27.8728 64.2763 32.4752 62.9994 37.1108 61.9467C41.545 60.9389 46.0407 60.1341 50.5649 59.5275Z" fill="white"/>
<path d="M44.6448 45.4087C45.6355 45.2623 46.6285 45.1254 47.6215 45.0003C41.6516 42.7322 35.4921 40.8251 29.2782 39.3169H22.6968C24.0667 39.5883 25.4317 39.8763 26.7897 40.1855C32.8212 41.5544 38.8148 43.3081 44.6448 45.4087Z" fill="white"/>
<path d="M47.2778 46.3833L47.7874 45.0616C47.7329 45.0404 47.676 45.0215 47.6215 45.0002C46.6285 45.1277 45.6355 45.2646 44.6448 45.4086C45.5265 45.7272 46.4057 46.0505 47.2778 46.3833Z" fill="white"/>
<path d="M59.3289 40.7991C57.9899 40.2917 56.6438 39.7984 55.2906 39.3169H50.9441C53.724 40.2445 56.4826 41.2287 59.2104 42.2696C59.2626 41.7833 59.3029 41.2924 59.3289 40.7991Z" fill="white"/>
<path d="M31.1172 48.0215C31.75 47.8681 32.3852 47.7194 33.0179 47.5755C33.3474 47.4999 33.6768 47.4291 34.0086 47.356C31.1907 46.544 28.3184 45.8029 25.4673 45.1539C18.4073 43.5513 11.1671 42.4467 3.8938 41.8542C3.93883 42.3357 3.99334 42.8149 4.06206 43.2893C11.1719 43.8817 18.2461 44.9674 25.1497 46.5346C27.1381 46.9878 29.136 47.4881 31.1172 48.0215Z" fill="white"/>
<path d="M31.1172 48.0215C32.0107 48.2623 32.9018 48.5077 33.7858 48.765L34.1839 47.4055C34.1271 47.389 34.0678 47.3725 34.0109 47.356C33.6815 47.4291 33.3497 47.4999 33.0203 47.5755C32.3852 47.7194 31.75 47.8705 31.1172 48.0215Z" fill="white"/>
<path d="M17.3834 52.0127C18.2935 51.7011 19.2059 51.399 20.1231 51.1063C17.5351 50.5753 14.8997 50.1056 12.2857 49.7091C10.0295 49.3668 7.74965 49.0789 5.46503 48.8381C5.64988 49.3409 5.85133 49.8389 6.06462 50.3274C8.0767 50.5493 10.084 50.8089 12.0724 51.1111C13.8404 51.3778 15.6178 51.6822 17.3834 52.0127Z" fill="white"/>
<path d="M20.0141 52.5272L20.3032 51.1394C20.244 51.1276 20.1824 51.1158 20.1231 51.104C19.206 51.399 18.2935 51.7011 17.3835 52.0103C18.2651 52.1779 19.1443 52.3478 20.0141 52.5272Z" fill="white"/>
<path d="M31.5652 34.3557H30.8542V22.4908C30.8542 22.099 31.1718 21.7827 31.5652 21.7827C31.9586 21.7827 32.2761 22.099 32.2761 22.4908V32.9159C37.7294 32.5501 42.0569 28.0137 42.0569 22.4908C42.0569 22.099 42.3744 21.7827 42.7679 21.7827C43.1613 21.7827 43.4788 22.099 43.4788 22.4908C43.4788 29.0334 38.1346 34.3557 31.5652 34.3557Z" fill="white"/>
</svg>
